<?xml version="1.0" standalone="no"?>
<!DOCTYPE svg PUBLIC "-//W3C//DTD SVG 1.1//EN" "http://www.w3.org/Graphics/SVG/1.1/DTD/svg11.dtd" >
<svg xmlns="http://www.w3.org/2000/svg">
<metadata></metadata>
<defs>
<font id="ms_gothicregular" horiz-adv-x="1024" vert-adv-y="2048" >
<font-face units-per-em="2048" ascent="1760" descent="-288" />
<missing-glyph horiz-adv-x="500" />
<glyph horiz-adv-x="0" vert-adv-y="0" />
<glyph horiz-adv-x="682" />
<glyph unicode=" " />
<glyph unicode="!" d="M400 1400h224l-48 -904h-128zM424 32v176h176v-176h-176z" />
<glyph unicode="&#x22;" d="M104 1240l200 400h224l-280 -400h-144zM488 1240l200 400h224l-280 -400h-144z" />
<glyph unicode="#" d="M48 400v152h176l48 336h-224v152h240l48 360h128l-48 -360h264l48 360h128l-48 -360h160v-152h-176l-48 -336h224v-152h-240l-48 -368h-128l48 368h-264l-48 -368h-128l48 368h-160zM352 552h264l48 336h-264z" />
<glyph unicode="$" d="M112 472h184q0 -200 56 -252t96 -52v520q-192 104 -248 188t-56 196q0 144 84 236t220 108v152h112v-152q136 0 220 -108t84 -268h-176q0 120 -44 172t-84 52v-448q128 -64 224 -160t96 -240q0 -208 -104 -304t-216 -96v-200h-112v200q-136 0 -236 112t-100 344z M312 1088q0 -56 24 -108t112 -100v384q-48 0 -92 -44t-44 -132zM560 168q48 8 96 48t48 160q0 88 -40 144t-104 104v-456z" />
<glyph unicode="%" d="M56 1056q0 232 68 296t132 64t132 -64t68 -296t-68 -296t-132 -64t-132 64t-68 296zM168 40l616 1376l64 -24l-616 -1376zM184 1056q0 -144 16 -192t56 -48t56 48t16 192t-16 192t-56 48t-56 -48t-16 -192zM560 376q0 232 68 296t132 64t132 -64t68 -296t-68 -296 t-132 -64t-132 64t-68 296zM688 376q0 -144 16 -192t56 -48t56 48t16 192t-16 192t-56 48t-56 -48t-16 -192z" />
<glyph unicode="&#x26;" d="M56 408q0 128 68 212t164 156q-40 88 -64 176t-24 160q0 144 84 224t204 80q104 0 176 -68t72 -196q0 -152 -84 -244t-188 -156q56 -96 116 -180t140 -172q24 56 32 108t8 132h160q0 -104 -20 -188t-60 -156q24 -24 68 -56t76 -48l-72 -160l-84 56t-76 64 q-64 -64 -136 -100t-168 -36q-160 0 -276 96t-116 296zM224 400q0 -120 72 -180t168 -60q56 0 96 24t80 72q-104 112 -176 208t-120 192q-64 -48 -92 -108t-28 -148zM352 1120q0 -56 12 -116t44 -132q64 32 120 100t56 180q0 56 -28 88t-76 32t-88 -40t-40 -112z" />
<glyph unicode="'" d="M176 1000l80 240h-80v176h184v-176l-104 -240h-80z" />
<glyph unicode="(" d="M472 712q0 264 100 472t300 408l88 -88q-184 -176 -276 -364t-92 -428t92 -428t276 -356l-88 -88q-200 192 -300 400t-100 472z" />
<glyph unicode=")" d="M56 -72q184 168 276 356t92 428t-92 428t-276 364l88 88q200 -200 300 -408t100 -472t-100 -472t-300 -400z" />
<glyph unicode="*" d="M40 560l344 176l-344 176l80 144l328 -208l-16 384h160l-16 -384l328 208l80 -144l-344 -176l344 -176l-80 -144l-328 208l16 -408h-160l16 408l-328 -208z" />
<glyph unicode="+" d="M48 672v128h392v392h136v-392h392v-128h-392v-392h-136v392h-392z" />
<glyph unicode="," d="M176 32v176h184v-176l-104 -216h-80l80 216h-80z" />
<glyph unicode="-" d="M48 672v128h912v-128h-912z" />
<glyph unicode="." d="M168 32v176h184v-176h-184z" />
<glyph unicode="/" d="M40 -16l848 1512l80 -48l-848 -1512z" />
<glyph unicode="0" d="M64 720q0 288 108 492t340 204t336 -204t104 -492t-104 -496t-336 -208t-340 208t-108 496zM256 720q0 -256 64 -404t192 -148t188 148t60 404t-60 400t-188 144t-192 -144t-64 -400z" />
<glyph unicode="1" d="M200 1096v96q144 0 224 56t104 168h96v-1384h-184v1064h-240z" />
<glyph unicode="2" d="M96 32v128q48 128 132 236t244 244q120 104 172 192t52 192t-44 172t-140 68q-80 0 -140 -72t-60 -256h-184q8 232 108 356t284 124q176 0 272 -108t96 -292q0 -152 -88 -264t-216 -224q-144 -128 -200 -192t-104 -152h632v-152h-816z" />
<glyph unicode="3" d="M88 456h184q0 -152 60 -220t164 -68t160 64t56 200q0 112 -60 176t-212 64v136q128 0 188 64t60 192q0 96 -44 152t-140 56t-148 -68t-60 -196h-176q16 184 116 296t268 112q176 0 272 -100t96 -244q0 -136 -48 -212t-160 -116q112 -24 176 -112t64 -216 q0 -184 -116 -292t-292 -108t-292 108t-116 332z" />
<glyph unicode="4" d="M64 384v152l536 880h184v-880h168v-152h-168v-352h-184v352h-536zM240 536h360v592z" />
<glyph unicode="5" d="M88 432h184q0 -120 56 -192t160 -72t164 88t60 272q0 160 -52 236t-140 76q-72 0 -124 -32t-100 -112h-160l48 704h688v-152h-536l-32 -368q48 48 104 72t152 24q152 0 248 -116t96 -332q0 -240 -116 -376t-308 -136q-168 0 -276 112t-116 304z" />
<glyph unicode="6" d="M112 696q0 328 116 524t332 196q152 0 244 -112t92 -248h-184q0 80 -44 144t-116 64q-120 0 -184 -124t-72 -380q56 104 120 144t152 40q152 0 248 -120t96 -328q0 -224 -96 -352t-288 -128t-304 160t-112 520zM312 528q0 -176 60 -272t164 -96q72 0 128 72t56 264 q0 144 -48 224t-136 80q-104 0 -164 -80t-60 -192z" />
<glyph unicode="7" d="M128 1248v152h760v-168l-376 -1200h-184l384 1216h-584z" />
<glyph unicode="8" d="M88 424q0 104 64 188t176 124q-96 40 -148 112t-52 184q0 176 112 280t264 104t264 -104t112 -280q0 -112 -52 -184t-148 -112q112 -40 176 -124t64 -188q0 -200 -112 -304t-304 -104t-304 104t-112 304zM272 424q0 -128 64 -196t168 -68t168 68t64 196q0 112 -60 176 t-172 64t-172 -64t-60 -176zM304 1032q0 -128 60 -180t140 -52t140 52t60 180t-56 184t-144 56t-144 -56t-56 -184z" />
<glyph unicode="9" d="M104 952q0 208 96 336t288 128t304 -160t112 -520q0 -328 -116 -524t-332 -196q-152 0 -244 112t-92 248h184q0 -80 44 -144t116 -64q120 0 180 136t76 400q-40 -88 -112 -136t-160 -48q-152 0 -248 112t-96 320zM296 952q0 -136 44 -212t140 -76q104 0 164 72t60 184 q0 176 -60 264t-164 88q-72 0 -128 -68t-56 -252z" />
<glyph unicode=":" d="M408 32v176h184v-176h-184zM408 768v176h184v-176h-184z" />
<glyph unicode=";" d="M408 32v176h184v-176l-104 -216h-80l80 216h-80zM408 768v176h184v-176h-184z" />
<glyph unicode="&#x3c;" d="M72 712l800 736l80 -80l-720 -656l720 -640l-72 -88z" />
<glyph unicode="=" d="M48 432v128h912v-128h-912zM48 920v128h912v-128h-912z" />
<glyph unicode="&#x3e;" d="M72 72l720 640l-720 656l80 80l800 -736l-808 -728z" />
<glyph unicode="?" d="M112 976q8 224 120 332t272 108q176 0 276 -96t100 -248q0 -104 -48 -192t-128 -152t-112 -128t-32 -88v-56h-144v80q0 72 36 140t124 148q64 56 88 116t24 116q0 104 -48 156t-136 52t-148 -68t-60 -220h-184zM400 32v192h176v-192h-176z" />
<glyph unicode="@" d="M48 688q0 360 152 544t352 184q192 0 304 -160t112 -416q0 -296 -84 -408t-180 -112q-40 0 -72 24t-48 72q-40 -48 -80 -72t-80 -24q-80 0 -136 68t-56 196q0 216 112 384t216 168q40 0 56 -8t40 -56l40 64h88l-112 -608q-8 -48 8 -72t48 -24q88 0 124 108t36 300 q0 240 -92 376t-244 136q-168 0 -296 -164t-128 -500t120 -472t288 -136q64 0 136 36t112 108l40 -56q-48 -64 -124 -108t-164 -44q-200 0 -344 156t-144 516zM360 592q0 -88 28 -128t68 -40q48 0 72 40t32 88l72 392q8 48 -8 76t-56 28q-64 0 -136 -148t-72 -308z" />
<glyph unicode="A" d="M32 32l400 1384h160l400 -1384h-192l-112 424h-352l-112 -424h-192zM376 608h272l-128 488h-16z" />
<glyph unicode="B" d="M96 32v1368h416q200 0 300 -104t100 -248t-68 -212t-140 -92q96 -24 172 -100t76 -204q0 -232 -128 -320t-328 -88h-400zM280 184h184q144 0 220 56t76 200q0 128 -84 180t-188 52h-208v-488zM280 824h232q88 0 152 52t64 172q0 104 -60 152t-148 48h-240v-424z" />
<glyph unicode="C" d="M80 672q0 376 132 560t340 184q176 0 292 -132q109 -123 109 -341q0 -15 -1 -31h-176q0 176 -56 264t-168 88q-128 0 -204 -132t-76 -444q0 -288 76 -404t196 -116q88 0 160 84t72 324h184q-8 -304 -128 -432t-288 -128q-192 0 -328 156t-136 500z" />
<glyph unicode="D" d="M96 32v1368h272q296 0 436 -160t140 -528t-156 -524t-420 -156h-272zM280 184h88q192 0 288 116t96 412t-96 416t-288 120h-88v-1064z" />
<glyph unicode="E" d="M120 32v1368h776v-152h-592v-424h544v-152h-544v-488h632v-152h-816z" />
<glyph unicode="F" d="M104 32v1368h840v-152h-656v-448h496v-152h-496v-616h-184z" />
<glyph unicode="G" d="M80 672q0 376 120 560t328 184q184 0 288 -136t104 -352h-176q0 168 -56 252t-160 84q-128 0 -192 -132t-64 -444q0 -296 80 -408t184 -112t164 76t60 236v88h-248v152h408v-704h-136l-24 112q-32 -48 -100 -80t-148 -32q-168 0 -300 156t-132 500z" />
<glyph unicode="H" d="M96 32v1368h184v-576h456v576h184v-1368h-184v640h-456v-640h-184z" />
<glyph unicode="I" d="M416 32v1368h184v-1368h-184z" />
<glyph unicode="J" d="M112 472v88h184v-112q0 -144 60 -204t140 -60q112 0 168 64t56 232v920h184v-912q0 -248 -108 -360t-292 -112q-168 0 -280 108t-112 348z" />
<glyph unicode="K" d="M96 32v1368h184v-592l456 592h216l-424 -536l456 -832h-208l-368 680l-128 -168v-512h-184z" />
<glyph unicode="L" d="M104 32v1368h184v-1216h648v-152h-832z" />
<glyph unicode="M" d="M80 32v1368h248l176 -904h16l176 904h248v-1368h-160v976h-16l-192 -976h-128l-192 976h-16v-976h-160z" />
<glyph unicode="N" d="M88 32v1368h200l440 -992h8v992h184v-1368h-200l-440 992h-8v-992h-184z" />
<glyph unicode="O" d="M64 720q0 376 120 536t328 160t324 -160t116 -536t-116 -540t-324 -164t-328 164t-120 540zM256 720q0 -336 76 -444t180 -108t176 108t72 444t-72 440t-176 104t-180 -104t-76 -440z" />
<glyph unicode="P" d="M112 32v1368h416q200 0 312 -112t112 -304t-112 -304t-312 -112h-232v-536h-184zM296 720h184q144 0 216 56t72 208t-72 208t-216 56h-184v-528z" />
<glyph unicode="Q" d="M64 720q0 376 120 536t328 160t324 -160t116 -536q0 -192 -28 -324t-92 -212l64 -120l-128 -136l-72 136q-32 -24 -80 -36t-104 -12q-208 0 -328 164t-120 540zM256 720q0 -336 76 -444t180 -108q40 0 72 12t48 28l-128 248l112 136l112 -216q16 80 24 144t8 200 q0 336 -72 440t-176 104t-180 -104t-76 -440z" />
<glyph unicode="R" d="M96 32v1368h400q192 0 312 -92t120 -300q0 -160 -80 -248t-184 -112l304 -616h-192l-288 592h-208v-592h-184zM280 776h224q96 0 168 52t72 180q0 112 -68 176t-220 64h-176v-472z" />
<glyph unicode="S" d="M80 408v56h184v-48q0 -120 72 -184t168 -64q128 0 188 68t60 164q0 80 -72 148t-208 124q-192 72 -276 160t-84 208q0 168 116 272t276 104q208 0 300 -124t92 -268h-184q1 11 1 22q0 75 -49 138q-56 72 -160 72q-96 0 -152 -52t-56 -140q0 -72 44 -124t228 -124 q176 -72 272 -172t96 -228q0 -184 -116 -292t-316 -108t-312 112t-112 280z" />
<glyph unicode="T" d="M96 1248v152h824v-152h-320v-1216h-184v1216h-320z" />
<glyph unicode="U" d="M96 432v968h184v-968q0 -136 64 -200t168 -64t168 64t64 200v968h184v-968q0 -192 -100 -304t-316 -112t-316 112t-100 304z" />
<glyph unicode="V" d="M24 1400h192l280 -1048h16l280 1048h192l-400 -1384h-160z" />
<glyph unicode="W" d="M16 1400h176l88 -872h16l120 872h176l120 -872h16l88 872h176l-176 -1384h-160l-144 1024h-16l-144 -1024h-160z" />
<glyph unicode="X" d="M40 32l376 720l-336 648h192l232 -496l232 496h192l-336 -648l376 -720h-192l-272 560l-272 -560h-192z" />
<glyph unicode="Y" d="M40 1400h184l280 -584h8l280 584h184l-376 -752v-616h-184v616z" />
<glyph unicode="Z" d="M80 32v152l648 1064h-600v152h784v-152l-648 -1064h672v-152h-856z" />
<glyph unicode="[" d="M408 -176v1784h504v-128h-368v-1528h368v-128h-504z" />
<glyph unicode="\" d="M16 1400h200l288 -600l288 600h200l-360 -680h288v-128h-336v-112h336v-128h-336v-320h-160v320h-336v128h336v112h-336v128h288z" />
<glyph unicode="]" d="M104 -48h368v1528h-368v128h504v-1784h-504v128z" />
<glyph unicode="^" d="M120 1312l288 328h192l288 -328h-144l-240 200l-240 -200h-144z" />
<glyph unicode="_" d="M0 -184h1016v-96h-1016v96z" />
<glyph unicode="`" d="M264 1640h240l232 -368h-136z" />
<glyph unicode="a" d="M96 264q0 120 80 192t248 96q112 16 196 40t84 64q0 48 -36 96t-156 48q-96 0 -140 -36t-60 -100h-176q16 128 116 204t260 76q176 0 264 -80t88 -224v-440q0 -48 16 -88t48 -80h-192q-16 16 -24 44t-8 68q-56 -64 -136 -96t-168 -32q-128 0 -216 64t-88 184zM272 280 q0 -48 36 -84t108 -36t156 40t132 128v160q-48 -16 -92 -28t-148 -28q-120 -16 -156 -56t-36 -96z" />
<glyph unicode="b" d="M104 32v1368h160v-592q48 72 112 108t152 36q160 0 272 -120t112 -352t-112 -348t-272 -116q-88 0 -152 32t-112 104v-120h-160zM264 480q0 -152 68 -236t164 -84q120 0 180 84t60 236t-60 240t-180 88q-96 0 -164 -88t-68 -240z" />
<glyph unicode="c" d="M80 480q0 216 128 340t304 124t280 -92t104 -220h-176q-8 96 -68 132t-140 36q-96 0 -176 -76t-80 -244t80 -244t176 -76q104 0 168 56t64 176h176q0 -168 -116 -272t-292 -104t-304 124t-128 340z" />
<glyph unicode="d" d="M80 480q0 232 112 352t272 120q88 0 152 -36t112 -108v592h160v-1368h-160v120q-48 -72 -112 -104t-152 -32q-160 0 -272 116t-112 348zM256 480q0 -152 60 -236t180 -84q96 0 164 84t68 236t-68 240t-164 88q-120 0 -180 -88t-60 -240z" />
<glyph unicode="e" d="M88 480q0 216 124 340t316 124q168 0 276 -108t108 -356h-648q0 -176 76 -248t188 -72q88 0 144 44t72 132h176q-16 -144 -128 -232t-264 -88q-192 0 -316 124t-124 340zM272 608h456q-16 112 -72 156t-144 44q-80 0 -144 -44t-96 -156z" />
<glyph unicode="f" d="M96 800v128h272v184q0 144 88 224t232 80q88 0 140 -12t92 -28v-160q-40 24 -96 40t-144 16t-120 -44t-32 -108v-192h328v-128h-328v-768h-160v768h-272z" />
<glyph unicode="g" d="M88 -56q0 48 40 96t104 80q-48 24 -76 60t-28 92q0 48 36 84t84 60q-40 40 -64 96t-24 120q0 136 92 224t228 88q72 0 124 -20t92 -60q64 48 128 68q46 14 96 14q19 0 40 -2v-152q-56 16 -108 20q-10 1 -21 1q-42 0 -87 -13q24 -24 40 -60t16 -108q0 -136 -92 -224 t-228 -88q-32 0 -84 12t-84 28q-24 -16 -32 -32t-8 -40q0 -40 56 -60t200 -20q232 0 316 -64t84 -160q0 -128 -124 -188t-292 -60q-216 0 -320 56t-104 152zM232 -40q0 -48 64 -80t224 -32q136 0 196 36t60 84q0 32 -36 64t-180 32q-32 0 -88 4t-128 12q-64 -24 -88 -56 t-24 -64zM320 632q0 -80 40 -128t120 -48t120 48t40 128t-40 128t-120 48t-120 -48t-40 -128z" />
<glyph unicode="h" d="M120 32v1368h160v-640q64 88 140 136t196 48q144 0 216 -80t72 -200v-632h-160v576q0 96 -48 152t-128 56q-104 0 -196 -108t-92 -268v-408h-160z" />
<glyph unicode="i" d="M424 32v896h160v-896h-160zM424 1184v208h160v-208h-160z" />
<glyph unicode="j" d="M192 -64q40 -24 96 -40t144 -16t120 44t32 108v896h160v-888q0 -144 -88 -224t-232 -80q-88 0 -140 12t-92 28v160zM584 1184v208h160v-208h-160z" />
<glyph unicode="k" d="M128 32v1368h160v-872l400 400h200l-312 -304l368 -592h-184l-288 488l-184 -176v-312h-160z" />
<glyph unicode="l" d="M432 32v1368h160v-1368h-160z" />
<glyph unicode="m" d="M40 32v896h160v-120q40 64 96 100t120 36t108 -36t60 -100q40 64 92 100t116 36q96 0 144 -52t48 -148v-712h-160v648q0 48 -16 80t-64 32q-56 0 -104 -60t-48 -156v-544h-160v648q0 48 -16 80t-64 32q-56 0 -104 -60t-48 -156v-544h-160z" />
<glyph unicode="n" d="M120 32v896h160v-168q64 88 140 136t196 48q144 0 216 -80t72 -200v-632h-160v576q0 96 -48 152t-128 56q-104 0 -196 -108t-92 -268v-408h-160z" />
<glyph unicode="o" d="M80 480q0 208 128 336t304 128t304 -128t128 -336t-128 -336t-304 -128t-304 128t-128 336zM256 480q0 -160 80 -240t176 -80t176 80t80 240t-80 240t-176 80t-176 -80t-80 -240z" />
<glyph unicode="p" d="M104 -264v1192h160v-120q48 72 112 104t152 32q160 0 272 -116t112 -348t-112 -352t-272 -120q-88 0 -152 36t-112 108v-416h-160zM264 480q0 -152 68 -240t164 -88q120 0 180 88t60 240t-60 236t-180 84q-96 0 -164 -84t-68 -236z" />
<glyph unicode="q" d="M80 480q0 232 112 348t272 116q88 0 152 -32t112 -104v120h160v-1192h-160v416q-48 -72 -112 -108t-152 -36q-160 0 -272 120t-112 352zM256 480q0 -152 60 -240t180 -88q96 0 164 88t68 240t-68 236t-164 84q-120 0 -180 -84t-60 -236z" />
<glyph unicode="r" d="M216 32v896h160v-232q72 128 180 188t252 60v-176q-40 6 -76 6q-103 0 -180 -50q-104 -68 -176 -236v-456h-160z" />
<glyph unicode="s" d="M136 312h160q0 -96 68 -128t164 -32t144 36t48 92q0 40 -40 80t-200 64q-184 24 -252 92t-68 180q0 96 92 172t268 76q160 0 252 -72t92 -192h-160q0 72 -52 100t-132 28q-104 0 -148 -36t-44 -84q0 -56 40 -88t168 -48q208 -32 280 -100t72 -172q0 -128 -100 -196 t-252 -68q-192 0 -296 76t-104 220z" />
<glyph unicode="t" d="M64 800v128h272v312h160v-312h328v-128h-328v-488q0 -64 32 -108t120 -44t144 16t96 40v-160q-40 -16 -92 -28t-140 -12q-144 0 -232 80t-88 224v480h-272z" />
<glyph unicode="u" d="M120 296v632h160v-576q0 -96 48 -152t128 -56q104 0 196 108t92 268v408h160v-896h-160v168q-64 -88 -140 -136t-196 -48q-144 0 -216 80t-72 200z" />
<glyph unicode="v" d="M80 928h168l248 -696h16l248 696h168l-336 -912h-176z" />
<glyph unicode="w" d="M16 928h168l104 -600h16l112 600h176l112 -600h16l104 600h168l-200 -912h-152l-128 696h-16l-128 -696h-152z" />
<glyph unicode="x" d="M80 32l328 456l-304 440h192l208 -336l208 336h192l-304 -440l328 -456h-192l-232 344l-232 -344h-192z" />
<glyph unicode="y" d="M72 928h176l256 -704h8l248 704h176l-368 -968q-32 -112 -96 -168t-160 -56q-40 0 -76 4t-68 20v160q32 -16 64 -24t56 -8q64 0 88 20t48 92z" />
<glyph unicode="z" d="M120 32v128l544 640h-512v128h704v-128l-544 -640h584v-128h-776z" />
<glyph unicode="{" d="M464 656v112q56 0 80 24t24 80v520q0 104 48 160t144 56h128v-96h-64q-48 0 -72 -24t-24 -72v-488q0 -80 -16 -136t-56 -80q40 -32 56 -84t16 -132v-480q0 -48 24 -72t72 -24h64v-96h-128q-96 0 -144 52t-48 164v512q0 48 -24 76t-80 28z" />
<glyph unicode="|" d="M432 -280v2040h160v-2040h-160z" />
<glyph unicode="}" d="M128 -80h64q48 0 72 24t24 72v480q0 80 20 132t52 84q-32 24 -52 80t-20 136v488q0 48 -24 72t-72 24h-64v96h128q96 0 144 -56t48 -160v-520q0 -56 28 -80t76 -24v-112q-48 0 -76 -28t-28 -76v-512q0 -112 -48 -164t-144 -52h-128v96z" />
<glyph unicode="~" d="M120 1464q48 112 100 188t124 76q88 0 196 -100t164 -100q32 0 80 48t72 144l80 -104q-48 -112 -108 -188t-140 -76q-56 0 -160 104t-176 104q-56 0 -88 -44t-64 -140z" />
<glyph unicode="&#xa0;" />
<glyph unicode="&#xa7;" horiz-adv-x="2048" d="M624 88h192q0 -56 52 -88t148 -32t152 44t56 124q0 56 -48 96t-200 72q-176 40 -264 116t-88 188q0 88 40 144t112 104q-64 32 -104 84t-40 140q0 136 108 236t292 100q192 0 284 -80t108 -200h-192q0 56 -52 88t-148 32t-152 -44t-56 -124q0 -56 48 -96t200 -72 q176 -40 264 -116t88 -188q0 -88 -40 -144t-112 -104q64 -32 104 -84t40 -140q0 -136 -108 -236t-292 -100q-192 0 -284 80t-108 200zM816 640q0 -88 84 -132t252 -84q48 32 64 68t16 92q0 88 -84 132t-252 84q-48 -32 -64 -68t-16 -92z" />
<glyph unicode="&#xa8;" horiz-adv-x="2048" d="M664 1416v224h224v-224h-224zM1152 1416v224h224v-224h-224z" />
<glyph unicode="&#xad;" d="M48 672v128h912v-128h-912z" />
<glyph unicode="&#xb0;" horiz-adv-x="2048" d="M104 1384q0 104 76 180t180 76t180 -76t76 -180t-76 -180t-180 -76t-180 76t-76 180zM208 1384q0 -64 44 -108t108 -44t108 44t44 108t-44 108t-108 44t-108 -44t-44 -108z" />
<glyph unicode="&#xb1;" horiz-adv-x="2048" d="M272 56v152h1488v-152h-1488zM272 776v152h664v432h160v-432h664v-152h-664v-432h-160v432h-664z" />
<glyph unicode="&#xb4;" horiz-adv-x="2048" d="M720 1288l304 352h288l-408 -352h-184z" />
<glyph unicode="&#xb6;" horiz-adv-x="2048" d="M560 968q0 216 116 324t268 108h440v-128h-48v-1440h-136v1440h-176v-1440h-136v736q-128 0 -228 96t-100 304z" />
<glyph unicode="&#xd7;" horiz-adv-x="2048" d="M496 320l416 416l-416 416l112 112l416 -416l416 416l112 -112l-416 -416l416 -416l-112 -112l-416 416l-416 -416z" />
<glyph unicode="&#xf7;" horiz-adv-x="2048" d="M280 664v152h1480v-152h-1480zM888 64v264h264v-264h-264zM888 1152v264h264v-264h-264z" />
<glyph unicode="&#x2000;" horiz-adv-x="880" vert-adv-y="0" />
<glyph unicode="&#x2001;" horiz-adv-x="1760" vert-adv-y="0" />
<glyph unicode="&#x2002;" horiz-adv-x="880" vert-adv-y="0" />
<glyph unicode="&#x2003;" horiz-adv-x="1760" vert-adv-y="0" />
<glyph unicode="&#x2004;" horiz-adv-x="586" vert-adv-y="0" />
<glyph unicode="&#x2005;" horiz-adv-x="440" vert-adv-y="0" />
<glyph unicode="&#x2006;" horiz-adv-x="293" vert-adv-y="0" />
<glyph unicode="&#x2007;" horiz-adv-x="293" vert-adv-y="0" />
<glyph unicode="&#x2008;" horiz-adv-x="220" vert-adv-y="0" />
<glyph unicode="&#x2009;" horiz-adv-x="352" vert-adv-y="0" />
<glyph unicode="&#x200a;" horiz-adv-x="97" vert-adv-y="0" />
<glyph unicode="&#x2010;" d="M48 672v128h912v-128h-912z" />
<glyph unicode="&#x2011;" d="M48 672v128h912v-128h-912z" />
<glyph unicode="&#x2012;" d="M48 672v128h912v-128h-912z" />
<glyph unicode="&#x2013;" horiz-adv-x="1136" d="M48 672v128h1024v-128h-1024z" />
<glyph unicode="&#x2014;" horiz-adv-x="2160" d="M48 672v128h2048v-128h-2048z" />
<glyph unicode="&#x2018;" horiz-adv-x="2048" d="M1424 1160v240l184 240h96l-160 -240h128v-240h-248z" />
<glyph unicode="&#x2019;" horiz-adv-x="2048" d="M336 1160l160 240h-128v240h248v-240l-184 -240h-96z" />
<glyph unicode="&#x201c;" horiz-adv-x="2048" d="M1200 1160v240l184 240h96l-160 -240h128v-240h-248zM1592 1160v240l184 240h96l-160 -240h128v-240h-248z" />
<glyph unicode="&#x201d;" horiz-adv-x="2048" d="M168 1160l160 240h-128v240h248v-240l-184 -240h-96zM560 1160l160 240h-128v240h248v-240l-184 -240h-96z" />
<glyph unicode="&#x2026;" horiz-adv-x="2048" d="M208 616v248h248v-248h-248zM896 616v248h248v-248h-248zM1584 616v248h248v-248h-248z" />
<glyph unicode="&#x202f;" horiz-adv-x="352" vert-adv-y="0" />
<glyph unicode="&#x205f;" horiz-adv-x="440" vert-adv-y="0" />
<glyph unicode="&#x25fc;" horiz-adv-x="920" vert-adv-y="1840" d="M0 0v920h920v-920h-920z" />
</font>
</defs>
</svg>
